<svg width="263" height="396" viewBox="0 0 263 396" fill="none" xmlns="http://www.w3.org/2000/svg">
<path d="M131.733 331.667C133.333 327.4 131.733 312.667 129.667 312.667C127 312.667 126.733 332.133 129.333 333C130.267 333.333 131.333 332.667 131.733 331.667Z" fill="black"/>
<path d="M173.067 323.933C174.267 321.933 168.333 306.6 166.067 305.733C162.133 304.2 161.6 307.467 164.533 314.733C168.733 325.067 170.867 327.4 173.067 323.933Z" fill="black"/>
<path d="M93.0667 316.4C96.4667 308.667 96.5333 305.333 93.2667 305.333C91.2667 305.333 83.9333 321 85.1333 322.867C86.9333 325.8 90 323.333 93.0667 316.4Z" fill="black"/>
<path d="M208.8 300.467C210.467 298.8 209.667 297.467 202.933 290.733C196.333 284.133 193.667 283.267 193.667 287.667C193.667 292.333 206.267 303 208.8 300.467Z" fill="black"/>
<path d="M60.0667 295.6C66 289.6 67.3333 285.333 63.2667 285.333C59.8 285.333 49.1333 296.6 50.1333 299.267C51.4 302.667 54.1333 301.667 60.0667 295.6Z" fill="black"/>
<path d="M143.667 295.133C179.067 288.667 205.4 253.933 202.467 217.667C200.933 198.8 196 185.867 181.667 163.333C168.267 142.267 161.667 125.733 161.667 113.267C161.667 110.867 160.2 107.733 157.8 105L153.867 100.667H129H104.133L100.2 105C97.6 107.933 96.3333 110.8 96.3333 113.733C96.3333 125.6 89.7333 142 77 162.067C47.8667 207.733 47.9333 246.267 77.0667 275.133C94.9333 292.867 118.067 299.8 143.667 295.133ZM119 286.6C88 281.8 64.2667 253.467 64.3333 221.467C64.4 204.933 69.9333 190.733 86.3333 164.667C97 147.667 102.267 135 104.733 120.4L106.533 110H129H151.467L153.067 119.533C155.533 134 159.733 145.267 167.333 157.6C171.067 163.667 176.8 173.067 180.067 178.4C210.467 228.333 184.733 284.867 130.333 287.867C128.867 287.933 123.733 287.4 119 286.6Z" fill="black"/>
<path d="M175.533 249.667C185.267 230.733 184.267 206.6 172.867 185.8C168 177 166.333 175.667 162.667 177.533C159.4 179.267 159.733 182.2 164.2 189.2C173.733 204.467 175.667 224.133 169.2 240.133C167.2 245 166 250 166.467 251.133C167.8 254.733 173.333 253.8 175.533 249.667Z" fill="black"/>
<path d="M231.467 265.8C233.733 263.467 231.667 261 224.867 258C215.867 254 213.667 253.867 213.667 257.133C213.667 260.267 229.4 267.867 231.467 265.8Z" fill="black"/>
<path d="M37.4667 262.333C44.7333 259.467 47.4 256.533 44.3333 254.667C40.8667 252.533 24.4 260.867 26.2667 263.867C27.4667 265.867 29.1333 265.6 37.4667 262.333Z" fill="black"/>
<path d="M240.333 221.333C240.333 218.733 239.733 218.6 230.667 218.933C223.133 219.267 221 219.8 221 221.333C221 222.867 223.133 223.4 230.667 223.733C239.733 224.067 240.333 223.933 240.333 221.333Z" fill="black"/>
<path d="M38.4 222.6C40.1333 219.733 36.6667 218.533 27.5333 218.933C20.4 219.267 18.3333 219.8 18.3333 221.333C18.3333 223.867 36.8667 225.067 38.4 222.6Z" fill="black"/>
<path d="M224.667 185.6C231.933 182.4 235.533 177.333 230.467 177.333C226.867 177.333 213.667 184 213.667 185.867C213.667 189.067 216.733 189 224.667 185.6Z" fill="black"/>
<path d="M44.8 187.133C47 184.867 45.0667 182.867 37.4667 179.6C29.2 176 27 175.933 27 179.4C27 182.333 42.7333 189.133 44.8 187.133Z" fill="black"/>
<path d="M204 151.133C210.2 144.6 210.8 143 207.467 141.733C204.933 140.733 191.667 153.8 193 156C194.667 158.667 198.467 157 204 151.133Z" fill="black"/>
<path d="M65.6667 155C65.6667 151.8 54.0667 140.933 51.6 141.867C48.4 143.067 49.3333 145.6 55.2667 151.6C61.1333 157.6 65.6667 159.067 65.6667 155Z" fill="black"/>
<path d="M156.8 92.4667C158.467 90.7333 157.667 85.6 155.533 84.8C154.4 84.3333 141.867 84 127.733 84C100.2 84 97.7333 84.6 99.6667 90.6C100.533 93.3333 154.133 95.0667 156.8 92.4667Z" fill="black"/>
<path d="M131 77.3333C154.6 76.7333 157 76.4666 157.4 74.2666C158.533 68.5333 156.133 68 128.333 68C100.333 68 97.7333 68.6 99.6 74.4666C100.733 78 101.533 78.0666 131 77.3333Z" fill="black"/>
<path d="M142.2 61.4666C144.533 57.4666 135.267 49.3333 128.467 49.3333C122 49.4 112.533 58 115.667 61.0666C116.733 62.2 141.6 62.5333 142.2 61.4666Z" fill="black"/>
<line x1="127.5" y1="51" x2="127.5" y2="31" stroke="black" stroke-width="3"/>
<path d="M126.444 32C144.944 29 141.444 22 134.944 19.5C128.444 17 120.944 18.5 117.944 21C111.444 25 112.444 30 111.444 30C110.444 30 111.444 23.5 111.444 32C111.444 40.5 123.944 44 134.944 39.5C145.944 35 147.444 22.5 146.944 21C146.544 19.8 146.778 12.5 146.944 9V4" stroke="black" stroke-width="3"/>
</svg>
