 <svg  version="1.0" xmlns="http://www.w3.org/2000/svg"  width="900.000000pt" height="513.000000pt" viewBox="0 0 900.000000 513.000000"  preserveAspectRatio="xMidYMid meet">  <g transform="translate(0.000000,513.000000) scale(0.100000,-0.100000)" fill="#ffffff" stroke="none"> <path d="M3370 3823 c-161 -29 -305 -131 -374 -265 -53 -103 -56 -143 -56 -998 0 -849 3 -895 53 -1000 54 -112 148 -201 270 -254 l72 -31 1095 -3 c628 -2 1128 1 1172 6 105 13 214 66 290 143 32 31 62 68 68 81 5 12 14 30 18 38 56 99 56 85 60 995 3 864 2 895 -36 990 -51 125 -179 237 -324 282 -48 15 -160 17 -1168 19 -613 1 -1126 -1 -1140 -3z m2293 -232 c28 -11 43 -43 30 -65 -16 -29 -1119 -1138 -1145 -1152 -38 -20 -85 -17 -123 6 -17 11 -100 91 -184 177 -84 87 -333 339 -552 560 -354 356 -400 406 -397 430 2 17 12 32 28 40 20 10 270 13 1172 13 694 0 1156 -4 1171 -9z m-2053 -686 l404 -405 -394 -399 c-269 -270 -402 -398 -417 -399 l-23 -2 0 805 c0 636 3 805 12 805 7 0 195 -182 418 -405z m2190 -405 c0 -766 -1 -809 -17 -803 -21 7 -803 791 -803 804 0 15 793 809 808 809 9 0 12 -169 12 -810z m-1551 -245 c97 -97 142 -120 241 -120 98 0 148 24 246 121 41 41 80 74 87 74 20 0 820 -806 815 -821 -4 -12 -197 -14 -1146 -17 -1128 -2 -1142 -2 -1142 17 0 24 786 821 810 821 8 0 48 -34 89 -75z"/> </g> </svg> 