<?xml version="1.0" standalone="no"?>
<!DOCTYPE svg PUBLIC "-//W3C//DTD SVG 20010904//EN"
 "http://www.w3.org/TR/2001/REC-SVG-20010904/DTD/svg10.dtd">
<svg version="1.0" xmlns="http://www.w3.org/2000/svg"
 width="256.000000pt" height="256.000000pt" viewBox="0 0 256.000000 256.000000"
 preserveAspectRatio="xMidYMid meet">
<metadata>
Created by potrace 1.10, written by Peter Selinger 2001-2011
</metadata>
<g transform="translate(0.000000,256.000000) scale(0.050000,-0.050000)"
fill="#ffffff" stroke="none">
<path d="M614 4181 c-151 -59 -263 -164 -338 -316 l-66 -134 0 -1171 0 -1171
66 -134 c76 -154 188 -258 343 -316 158 -60 3724 -60 3882 0 155 58 267 162
343 316 l66 134 0 1171 0 1171 -66 134 c-76 154 -188 258 -343 316 -156 60
-3736 59 -3887 0z m3857 -159 c129 -58 261 -220 215 -263 -111 -105 -1907
-1436 -1964 -1455 -246 -86 -260 -78 -1387 772 l-936 707 39 53 c61 86 146
159 222 192 118 51 3697 46 3811 -6z m-3433 -920 c354 -269 636 -495 628 -502
-9 -8 -301 -267 -649 -577 -349 -310 -639 -563 -645 -563 -7 0 -12 482 -12
1072 0 589 8 1068 17 1065 9 -4 306 -227 661 -495z m3722 -574 c0 -635 -7
-1069 -18 -1065 -10 4 -287 247 -615 540 -328 293 -618 550 -643 570 l-47 38
647 493 c355 271 653 493 661 494 8 1 15 -480 15 -1070z m-2737 -175 c426
-327 663 -322 1107 23 l179 140 71 -62 c430 -377 1300 -1162 1300 -1172 0 -30
-155 -162 -224 -191 -125 -52 -3693 -45 -3806 7 -139 65 -227 174 -179 221
207 206 1344 1194 1359 1182 11 -9 98 -75 193 -148z"/>
</g>
</svg>
